<svg width="228" height="270" viewBox="0 0 228 270" fill="none" xmlns="http://www.w3.org/2000/svg">
<mask id="path-1-outside-1" maskUnits="userSpaceOnUse" x="-2.70992" y="-1.17599" width="230.894" height="273.216" fill="black">
<rect fill="white" x="-2.70992" y="-1.17599" width="230.894" height="273.216"/>
<path d="M53.7841 172.595C51.6595 172.525 49.7934 172.698 48.0368 172.352C44.8651 171.728 42.297 169.927 41.2166 166.828C40.0004 163.349 38.9315 159.759 38.3913 156.127C38.0294 153.687 38.4565 151.047 38.9494 148.578C39.8801 143.887 41.0073 139.23 42.2372 134.608C43.6558 129.284 45.4947 124.094 48.3432 119.341C50.3375 116.013 52.2246 112.568 54.6412 109.559C58.5014 104.756 62.9622 100.5 68.3877 97.4041C70.1594 96.3919 72.0075 95.4971 73.6802 94.3466C74.2869 93.9261 74.7775 92.9271 74.818 92.1676C75.0045 88.5892 74.9881 85.0012 75.1016 81.42C75.1782 79.0524 75.2689 76.679 75.5147 74.3267C75.7787 71.7791 76.3002 69.2597 76.5857 66.717C76.9536 63.436 77.1196 60.1339 77.5203 56.8586C77.8628 54.0547 78.426 51.2834 78.8649 48.492C79.0666 47.2099 79.2337 45.9174 79.3732 44.6253C79.8343 40.4386 80.2365 36.2432 80.7384 32.0617C81.1281 28.813 81.6596 25.58 82.0753 22.3343C82.323 20.4119 82.4664 18.4777 82.6539 16.5499C82.8236 16.5264 82.9886 16.5048 83.1582 16.4812C83.4064 16.806 83.6532 17.1342 84.1944 17.8453C84.5956 16.3921 84.9208 15.2078 85.3173 13.7564C84.577 14.0281 84.2179 14.1607 83.473 14.4343C83.9593 11.5845 84.2393 8.98883 84.8812 6.48023C85.4868 4.11652 88.9253 2.00597 90.6033 2.96812C91.8768 3.70078 93.1161 4.92256 93.7632 6.22747C94.8399 8.4003 95.2264 10.9123 96.2754 13.1049C98.2439 17.2182 98.396 21.6581 99.0292 26.0196C99.6748 30.4644 100.399 34.8986 100.897 39.3604C101.749 46.9607 102.423 54.569 101.924 62.2392C101.653 66.3798 101.743 70.5445 101.514 74.6902C101.383 77.0665 100.853 79.4184 100.662 81.7974C100.49 83.9148 100.537 86.0487 100.485 88.2626C102.268 89.471 102.694 89.3659 103.437 87.2073C104.094 85.3055 104.599 83.3532 105.263 81.4542C105.539 80.6631 106.145 79.9888 106.428 79.2005C106.939 77.7538 107.26 76.24 107.787 74.8035C108.03 74.1393 108.57 73.5861 108.976 72.9813C109.188 72.9984 109.402 73.0168 109.614 73.0339C109.803 73.7478 110.222 74.4904 110.137 75.1691C109.892 77.1203 109.519 79.0648 109.049 80.9773C108.756 82.1673 108.757 83.5642 107.156 84.1162C106.714 84.2693 106.551 85.2317 106.258 85.8171C105.871 86.5855 105.475 87.3545 105.06 88.1621C105.495 88.2326 105.981 88.3123 106.452 88.3899C106.828 87.2149 107.202 86.0352 107.576 84.8554C107.746 84.8787 107.916 84.9021 108.087 84.9221C108.021 86.28 107.956 87.6379 107.878 89.2441C108.958 89.5186 110.088 89.8526 111.235 90.0883C112.76 90.4019 114.307 90.604 115.832 90.9176C117.612 91.2822 118.322 90.7718 118.535 88.9247C118.589 88.4633 118.61 87.8749 118.891 87.5814C121.076 85.3042 120.529 82.0666 121.8 79.4706C122.314 78.423 122.416 77.1739 122.91 76.1101C123.153 75.5898 123.862 75.2896 124.358 74.89C124.601 75.482 125.085 76.0874 125.05 76.6622C124.893 79.1601 124.422 81.6418 124.375 84.135C124.33 86.4922 124.552 88.8738 124.886 91.2118C125.171 93.2218 126.975 94.2476 128.92 93.5996C131.536 92.7254 133.573 91.3077 134.122 88.2497C134.816 84.3776 135.79 80.5549 136.623 76.7052C136.877 75.5228 137.022 74.3111 137.326 73.1413C137.457 72.6258 137.738 71.9459 138.151 71.7382C139.519 71.043 139.386 69.7592 139.443 68.6476C139.532 66.8935 139.196 65.1086 139.368 63.3695C139.534 61.7214 140.047 60.0919 140.566 58.504C140.72 58.0256 141.401 57.7178 141.842 57.3303C142.141 57.7696 142.686 58.2055 142.698 58.6509C142.744 60.6168 142.679 62.5874 142.574 64.5529C142.467 66.588 142.423 68.6493 142.077 70.6482C141.322 74.9903 140.592 79.3548 139.458 83.603C138.714 86.397 137.286 89.006 136.169 91.7009C136.008 92.0908 135.833 92.4752 135.724 92.8825C134.929 95.8079 135.237 96.0444 137.975 97.1904C142.388 99.0401 146.757 101.024 151.022 103.195C158.658 107.082 165.594 111.986 171.107 118.616C174.599 122.817 177.698 127.416 179.243 132.685C180.888 138.291 182.357 144.028 183.04 149.811C183.733 155.66 183.341 161.654 181.148 167.287C179.631 171.178 178.261 175.212 176.111 178.747C173.861 182.449 170.853 185.716 167.962 188.985C167.076 189.989 165.485 190.365 163.821 191.239C167.089 187.275 170.249 183.938 172.805 180.187C174.856 177.176 176.199 173.677 177.79 170.363C178.381 169.132 178.842 167.836 179.275 166.541C181.516 159.792 182.093 152.896 180.742 145.909C180.022 142.182 179.064 138.494 178.088 134.822C176.594 129.192 173.436 124.455 169.737 120.072C160.509 109.137 148.413 102.718 134.908 98.0971C134.671 98.5766 134.341 98.9981 134.248 99.4705C133.157 104.794 132.142 110.133 131.034 115.453C129.269 123.93 127.454 132.396 125.653 140.866C123.611 150.47 121.55 160.07 119.524 169.681C119.169 171.372 118.983 173.097 118.656 174.796C117.617 180.203 116.494 185.595 115.513 191.014C115.14 193.068 115.151 195.187 114.833 197.252C114.295 200.736 113.556 204.187 113.046 207.671C112.561 210.982 112.335 214.333 111.856 217.646C111.321 221.362 110.505 225.039 110.039 228.763C109.329 234.45 108.875 240.169 108.194 245.861C107.861 248.633 107.313 251.387 106.731 254.12C106.617 254.65 105.912 255.053 105.48 255.515C105.084 254.981 104.416 254.482 104.345 253.907C104.075 251.783 103.941 249.632 103.871 247.489C103.491 235.816 99.5192 225.246 93.6695 215.36C91.6222 211.9 88.9457 208.708 86.1009 205.848C82.2084 201.935 78.1513 198.071 73.6579 194.905C70.0449 192.355 65.8106 190.517 61.6209 189.005C56.6842 187.224 51.5332 185.99 46.4029 184.82C44.0605 184.285 41.5472 184.543 39.1247 184.287C38.0967 184.179 36.3329 183.821 36.2512 183.339C35.9849 181.82 37.689 182.001 38.6188 181.488C41.2215 180.051 43.8184 178.599 46.3857 177.096C48.8042 175.661 51.1959 174.167 53.7841 172.595ZM102.242 149.276C102.33 149.469 102.414 149.663 102.502 149.856C92.5375 154.647 82.3699 159.062 72.6687 164.34C62.9116 169.65 53.619 175.819 44.1264 181.613C46.9302 182.74 49.52 183.364 52.0843 184.061C56.2315 185.184 60.4703 186.076 64.4799 187.58C69.0664 189.302 73.5029 191.501 77.2444 194.778C81.0669 198.124 85.0589 201.333 88.5037 205.046C92.8668 209.746 96.3204 215.128 99.0802 221C101.682 226.537 103.833 232.107 104.307 238.26C104.423 239.774 104.933 241.26 105.258 242.76C105.497 242.738 105.733 242.714 105.972 242.692C106.258 240.801 106.529 238.908 106.828 237.022C107.114 235.213 107.486 233.416 107.709 231.601C107.905 230.012 107.866 228.396 108.08 226.811C108.603 222.935 109.209 219.069 109.784 215.203C110.168 212.6 110.535 209.993 110.947 207.397C111.354 204.815 111.876 202.249 112.227 199.659C112.935 194.451 113.382 189.201 114.268 184.024C115.439 177.193 116.899 170.407 118.299 163.616C119.515 157.724 120.831 151.854 122.09 145.972C122.862 142.374 123.63 138.775 124.359 135.167C125.326 130.37 126.231 125.563 127.194 120.764C128.002 116.74 128.847 112.728 129.691 108.711C129.814 108.13 130.017 107.562 130.146 106.984C130.869 103.732 131.583 100.481 132.334 97.0768C131.325 96.8084 130.518 96.3153 129.867 96.4755C127.22 97.1223 125.307 95.8408 123.203 94.5699C122.119 93.9157 120.261 93.5971 119.214 94.093C118.015 94.6629 117.309 96.2949 116.424 97.4938C116.267 97.7056 116.153 98.2441 116.237 98.2979C117.562 99.1691 116.676 100.134 116.287 100.944C114.918 103.796 113.597 106.684 111.982 109.395C110.31 112.196 107.439 111.978 106.029 109.016C105.371 107.633 104.791 106.09 104.695 104.584C104.441 100.581 103.857 96.5444 105.023 92.5591C105.113 92.2454 104.722 91.7288 104.436 91.4115C104.361 91.3263 103.681 91.5484 103.563 91.7768C101.923 94.8991 100.287 98.0274 98.7441 101.198C97.1165 104.544 96.1866 108.08 95.4313 111.751C94.4667 116.421 92.8518 120.973 91.2948 125.5C89.1642 131.689 86.404 137.598 83.2544 143.354C80.776 147.882 78.2018 152.293 74.7956 156.195C73.0321 158.217 71.3668 160.323 69.655 162.39C80.468 157.754 90.9126 152.404 102.242 149.276ZM93.0371 112.92C92.8244 112.84 92.6164 112.758 92.4037 112.678C92.0132 113.114 91.5568 113.51 91.236 113.994C89.6347 116.426 88.1715 118.959 86.4487 121.298C85.4459 122.659 84.215 123.996 82.7976 124.877C80.2569 126.457 78.1863 125.567 77.6437 122.64C76.8623 118.42 76.2991 114.153 75.8216 109.887C75.4579 106.64 75.3652 103.36 75.1845 100.094C75.1187 98.9119 75.1432 97.7283 75.1244 96.1679C68.6389 99.7432 62.8123 103.263 58.1681 108.472C53.8969 113.27 50.7301 118.766 48.1378 124.561C44.6507 132.363 42.9347 140.713 41.1667 149.037C39.9019 154.991 40.7641 160.555 43.4045 165.96C44.7309 168.681 47.1429 170.18 49.8254 170.184C52.406 170.188 55.1826 169.369 57.5172 168.203C60.3338 166.795 62.8914 164.777 65.3545 162.771C67.8682 160.727 70.5269 158.654 72.3651 156.054C73.5006 154.447 74.8142 152.891 75.8074 151.195C79.212 145.387 82.6569 139.577 85.6015 133.533C88.0916 128.429 89.9631 123.018 91.9863 117.694C92.5602 116.191 92.6999 114.521 93.0371 112.92ZM77.5123 92.4922C77.6796 92.5027 77.8678 92.557 78.033 92.516C82.262 91.5238 86.4782 90.4679 90.7218 89.5441C92.5221 89.1523 94.3747 88.9265 96.2147 88.8164C97.6573 88.7333 98.0393 87.8651 98.1919 86.7304C98.5041 84.4251 98.8532 82.1154 99.0256 79.7991C99.3036 76.0557 99.5148 72.3042 99.6402 68.5524C99.8244 63.1279 100.076 57.7001 99.9812 52.2812C99.9089 48.1863 99.4114 44.0915 98.9733 40.0133C98.6561 37.0501 97.934 34.1225 97.7279 31.1545C97.2033 23.6583 95.9248 16.3346 93.0096 9.38436C92.2268 7.52015 91.3572 5.50699 89.2187 4.63948C87.1865 6.74559 85.4735 14.8235 86.486 16.6227C85.9707 17.4359 85.232 18.11 85.1143 18.8767C84.2478 24.4798 83.4795 30.1001 82.734 35.7219C82.294 39.0356 81.8707 42.3562 81.618 45.6888C81.5021 47.1975 80.6232 48.8631 82.0433 50.261C79.7482 52.3327 75.9554 87.5619 77.5123 92.4922ZM80.4175 122.923C80.6418 122.984 80.8647 123.049 81.0857 123.109C81.7084 122.508 82.4148 121.969 82.9366 121.291C85.2923 118.222 87.7511 115.216 89.8708 111.991C91.8591 108.962 93.683 105.782 95.1634 102.481C96.0451 100.516 96.1459 98.1936 96.5584 96.0233C96.8927 94.2693 97.1714 92.5079 97.479 90.7429C96.0375 90.9083 94.9698 90.9902 93.9153 91.1633C88.8526 91.9828 83.6885 92.3392 78.8936 94.428C77.7948 94.9066 77.3322 95.6206 77.423 96.7894C77.625 99.4554 77.819 102.122 77.9761 104.793C78.1955 108.55 78.2016 112.333 78.6389 116.064C78.905 118.386 79.8 120.639 80.4175 122.923ZM117.444 92.9838C113.885 92.3918 110.717 91.8637 107.128 91.2674C106.975 94.4731 106.679 97.1363 106.774 99.7857C106.861 102.213 107.307 104.636 107.732 107.036C107.836 107.625 108.474 108.122 108.868 108.659C109.407 108.148 110.058 107.715 110.454 107.114C111.137 106.074 111.456 104.727 112.296 103.864C115.192 100.894 115.389 96.7892 117.444 92.9838ZM122.67 91.8922C122.779 89.815 122.886 87.8267 123 85.7087C121.309 86.3916 121.108 86.6987 120.455 89.3117C119.884 91.6001 119.992 91.7459 122.67 91.8922ZM99.9541 90.7195C99.6473 92.5395 99.3685 94.1877 99.048 96.0878C101.18 93.7498 101.7 91.3938 99.9541 90.7195Z"/>
</mask>
<path d="M53.7841 172.595C51.6595 172.525 49.7934 172.698 48.0368 172.352C44.8651 171.728 42.297 169.927 41.2166 166.828C40.0004 163.349 38.9315 159.759 38.3913 156.127C38.0294 153.687 38.4565 151.047 38.9494 148.578C39.8801 143.887 41.0073 139.23 42.2372 134.608C43.6558 129.284 45.4947 124.094 48.3432 119.341C50.3375 116.013 52.2246 112.568 54.6412 109.559C58.5014 104.756 62.9622 100.5 68.3877 97.4041C70.1594 96.3919 72.0075 95.4971 73.6802 94.3466C74.2869 93.9261 74.7775 92.9271 74.818 92.1676C75.0045 88.5892 74.9881 85.0012 75.1016 81.42C75.1782 79.0524 75.2689 76.679 75.5147 74.3267C75.7787 71.7791 76.3002 69.2597 76.5857 66.717C76.9536 63.436 77.1196 60.1339 77.5203 56.8586C77.8628 54.0547 78.426 51.2834 78.8649 48.492C79.0666 47.2099 79.2337 45.9174 79.3732 44.6253C79.8343 40.4386 80.2365 36.2432 80.7384 32.0617C81.1281 28.813 81.6596 25.58 82.0753 22.3343C82.323 20.4119 82.4664 18.4777 82.6539 16.5499C82.8236 16.5264 82.9886 16.5048 83.1582 16.4812C83.4064 16.806 83.6532 17.1342 84.1944 17.8453C84.5956 16.3921 84.9208 15.2078 85.3173 13.7564C84.577 14.0281 84.2179 14.1607 83.473 14.4343C83.9593 11.5845 84.2393 8.98883 84.8812 6.48023C85.4868 4.11652 88.9253 2.00597 90.6033 2.96812C91.8768 3.70078 93.1161 4.92256 93.7632 6.22747C94.8399 8.4003 95.2264 10.9123 96.2754 13.1049C98.2439 17.2182 98.396 21.6581 99.0292 26.0196C99.6748 30.4644 100.399 34.8986 100.897 39.3604C101.749 46.9607 102.423 54.569 101.924 62.2392C101.653 66.3798 101.743 70.5445 101.514 74.6902C101.383 77.0665 100.853 79.4184 100.662 81.7974C100.49 83.9148 100.537 86.0487 100.485 88.2626C102.268 89.471 102.694 89.3659 103.437 87.2073C104.094 85.3055 104.599 83.3532 105.263 81.4542C105.539 80.6631 106.145 79.9888 106.428 79.2005C106.939 77.7538 107.26 76.24 107.787 74.8035C108.03 74.1393 108.57 73.5861 108.976 72.9813C109.188 72.9984 109.402 73.0168 109.614 73.0339C109.803 73.7478 110.222 74.4904 110.137 75.1691C109.892 77.1203 109.519 79.0648 109.049 80.9773C108.756 82.1673 108.757 83.5642 107.156 84.1162C106.714 84.2693 106.551 85.2317 106.258 85.8171C105.871 86.5855 105.475 87.3545 105.06 88.1621C105.495 88.2326 105.981 88.3123 106.452 88.3899C106.828 87.2149 107.202 86.0352 107.576 84.8554C107.746 84.8787 107.916 84.9021 108.087 84.9221C108.021 86.28 107.956 87.6379 107.878 89.2441C108.958 89.5186 110.088 89.8526 111.235 90.0883C112.76 90.4019 114.307 90.604 115.832 90.9176C117.612 91.2822 118.322 90.7718 118.535 88.9247C118.589 88.4633 118.61 87.8749 118.891 87.5814C121.076 85.3042 120.529 82.0666 121.8 79.4706C122.314 78.423 122.416 77.1739 122.91 76.1101C123.153 75.5898 123.862 75.2896 124.358 74.89C124.601 75.482 125.085 76.0874 125.05 76.6622C124.893 79.1601 124.422 81.6418 124.375 84.135C124.33 86.4922 124.552 88.8738 124.886 91.2118C125.171 93.2218 126.975 94.2476 128.92 93.5996C131.536 92.7254 133.573 91.3077 134.122 88.2497C134.816 84.3776 135.79 80.5549 136.623 76.7052C136.877 75.5228 137.022 74.3111 137.326 73.1413C137.457 72.6258 137.738 71.9459 138.151 71.7382C139.519 71.043 139.386 69.7592 139.443 68.6476C139.532 66.8935 139.196 65.1086 139.368 63.3695C139.534 61.7214 140.047 60.0919 140.566 58.504C140.72 58.0256 141.401 57.7178 141.842 57.3303C142.141 57.7696 142.686 58.2055 142.698 58.6509C142.744 60.6168 142.679 62.5874 142.574 64.5529C142.467 66.588 142.423 68.6493 142.077 70.6482C141.322 74.9903 140.592 79.3548 139.458 83.603C138.714 86.397 137.286 89.006 136.169 91.7009C136.008 92.0908 135.833 92.4752 135.724 92.8825C134.929 95.8079 135.237 96.0444 137.975 97.1904C142.388 99.0401 146.757 101.024 151.022 103.195C158.658 107.082 165.594 111.986 171.107 118.616C174.599 122.817 177.698 127.416 179.243 132.685C180.888 138.291 182.357 144.028 183.04 149.811C183.733 155.66 183.341 161.654 181.148 167.287C179.631 171.178 178.261 175.212 176.111 178.747C173.861 182.449 170.853 185.716 167.962 188.985C167.076 189.989 165.485 190.365 163.821 191.239C167.089 187.275 170.249 183.938 172.805 180.187C174.856 177.176 176.199 173.677 177.79 170.363C178.381 169.132 178.842 167.836 179.275 166.541C181.516 159.792 182.093 152.896 180.742 145.909C180.022 142.182 179.064 138.494 178.088 134.822C176.594 129.192 173.436 124.455 169.737 120.072C160.509 109.137 148.413 102.718 134.908 98.0971C134.671 98.5766 134.341 98.9981 134.248 99.4705C133.157 104.794 132.142 110.133 131.034 115.453C129.269 123.93 127.454 132.396 125.653 140.866C123.611 150.47 121.55 160.07 119.524 169.681C119.169 171.372 118.983 173.097 118.656 174.796C117.617 180.203 116.494 185.595 115.513 191.014C115.14 193.068 115.151 195.187 114.833 197.252C114.295 200.736 113.556 204.187 113.046 207.671C112.561 210.982 112.335 214.333 111.856 217.646C111.321 221.362 110.505 225.039 110.039 228.763C109.329 234.45 108.875 240.169 108.194 245.861C107.861 248.633 107.313 251.387 106.731 254.12C106.617 254.65 105.912 255.053 105.48 255.515C105.084 254.981 104.416 254.482 104.345 253.907C104.075 251.783 103.941 249.632 103.871 247.489C103.491 235.816 99.5192 225.246 93.6695 215.36C91.6222 211.9 88.9457 208.708 86.1009 205.848C82.2084 201.935 78.1513 198.071 73.6579 194.905C70.0449 192.355 65.8106 190.517 61.6209 189.005C56.6842 187.224 51.5332 185.99 46.4029 184.82C44.0605 184.285 41.5472 184.543 39.1247 184.287C38.0967 184.179 36.3329 183.821 36.2512 183.339C35.9849 181.82 37.689 182.001 38.6188 181.488C41.2215 180.051 43.8184 178.599 46.3857 177.096C48.8042 175.661 51.1959 174.167 53.7841 172.595ZM102.242 149.276C102.33 149.469 102.414 149.663 102.502 149.856C92.5375 154.647 82.3699 159.062 72.6687 164.34C62.9116 169.65 53.619 175.819 44.1264 181.613C46.9302 182.74 49.52 183.364 52.0843 184.061C56.2315 185.184 60.4703 186.076 64.4799 187.58C69.0664 189.302 73.5029 191.501 77.2444 194.778C81.0669 198.124 85.0589 201.333 88.5037 205.046C92.8668 209.746 96.3204 215.128 99.0802 221C101.682 226.537 103.833 232.107 104.307 238.26C104.423 239.774 104.933 241.26 105.258 242.76C105.497 242.738 105.733 242.714 105.972 242.692C106.258 240.801 106.529 238.908 106.828 237.022C107.114 235.213 107.486 233.416 107.709 231.601C107.905 230.012 107.866 228.396 108.08 226.811C108.603 222.935 109.209 219.069 109.784 215.203C110.168 212.6 110.535 209.993 110.947 207.397C111.354 204.815 111.876 202.249 112.227 199.659C112.935 194.451 113.382 189.201 114.268 184.024C115.439 177.193 116.899 170.407 118.299 163.616C119.515 157.724 120.831 151.854 122.09 145.972C122.862 142.374 123.63 138.775 124.359 135.167C125.326 130.37 126.231 125.563 127.194 120.764C128.002 116.74 128.847 112.728 129.691 108.711C129.814 108.13 130.017 107.562 130.146 106.984C130.869 103.732 131.583 100.481 132.334 97.0768C131.325 96.8084 130.518 96.3153 129.867 96.4755C127.22 97.1223 125.307 95.8408 123.203 94.5699C122.119 93.9157 120.261 93.5971 119.214 94.093C118.015 94.6629 117.309 96.2949 116.424 97.4938C116.267 97.7056 116.153 98.2441 116.237 98.2979C117.562 99.1691 116.676 100.134 116.287 100.944C114.918 103.796 113.597 106.684 111.982 109.395C110.31 112.196 107.439 111.978 106.029 109.016C105.371 107.633 104.791 106.09 104.695 104.584C104.441 100.581 103.857 96.5444 105.023 92.5591C105.113 92.2454 104.722 91.7288 104.436 91.4115C104.361 91.3263 103.681 91.5484 103.563 91.7768C101.923 94.8991 100.287 98.0274 98.7441 101.198C97.1165 104.544 96.1866 108.08 95.4313 111.751C94.4667 116.421 92.8518 120.973 91.2948 125.5C89.1642 131.689 86.404 137.598 83.2544 143.354C80.776 147.882 78.2018 152.293 74.7956 156.195C73.0321 158.217 71.3668 160.323 69.655 162.39C80.468 157.754 90.9126 152.404 102.242 149.276ZM93.0371 112.92C92.8244 112.84 92.6164 112.758 92.4037 112.678C92.0132 113.114 91.5568 113.51 91.236 113.994C89.6347 116.426 88.1715 118.959 86.4487 121.298C85.4459 122.659 84.215 123.996 82.7976 124.877C80.2569 126.457 78.1863 125.567 77.6437 122.64C76.8623 118.42 76.2991 114.153 75.8216 109.887C75.4579 106.64 75.3652 103.36 75.1845 100.094C75.1187 98.9119 75.1432 97.7283 75.1244 96.1679C68.6389 99.7432 62.8123 103.263 58.1681 108.472C53.8969 113.27 50.7301 118.766 48.1378 124.561C44.6507 132.363 42.9347 140.713 41.1667 149.037C39.9019 154.991 40.7641 160.555 43.4045 165.96C44.7309 168.681 47.1429 170.18 49.8254 170.184C52.406 170.188 55.1826 169.369 57.5172 168.203C60.3338 166.795 62.8914 164.777 65.3545 162.771C67.8682 160.727 70.5269 158.654 72.3651 156.054C73.5006 154.447 74.8142 152.891 75.8074 151.195C79.212 145.387 82.6569 139.577 85.6015 133.533C88.0916 128.429 89.9631 123.018 91.9863 117.694C92.5602 116.191 92.6999 114.521 93.0371 112.92ZM77.5123 92.4922C77.6796 92.5027 77.8678 92.557 78.033 92.516C82.262 91.5238 86.4782 90.4679 90.7218 89.5441C92.5221 89.1523 94.3747 88.9265 96.2147 88.8164C97.6573 88.7333 98.0393 87.8651 98.1919 86.7304C98.5041 84.4251 98.8532 82.1154 99.0256 79.7991C99.3036 76.0557 99.5148 72.3042 99.6402 68.5524C99.8244 63.1279 100.076 57.7001 99.9812 52.2812C99.9089 48.1863 99.4114 44.0915 98.9733 40.0133C98.6561 37.0501 97.934 34.1225 97.7279 31.1545C97.2033 23.6583 95.9248 16.3346 93.0096 9.38436C92.2268 7.52015 91.3572 5.50699 89.2187 4.63948C87.1865 6.74559 85.4735 14.8235 86.486 16.6227C85.9707 17.4359 85.232 18.11 85.1143 18.8767C84.2478 24.4798 83.4795 30.1001 82.734 35.7219C82.294 39.0356 81.8707 42.3562 81.618 45.6888C81.5021 47.1975 80.6232 48.8631 82.0433 50.261C79.7482 52.3327 75.9554 87.5619 77.5123 92.4922ZM80.4175 122.923C80.6418 122.984 80.8647 123.049 81.0857 123.109C81.7084 122.508 82.4148 121.969 82.9366 121.291C85.2923 118.222 87.7511 115.216 89.8708 111.991C91.8591 108.962 93.683 105.782 95.1634 102.481C96.0451 100.516 96.1459 98.1936 96.5584 96.0233C96.8927 94.2693 97.1714 92.5079 97.479 90.7429C96.0375 90.9083 94.9698 90.9902 93.9153 91.1633C88.8526 91.9828 83.6885 92.3392 78.8936 94.428C77.7948 94.9066 77.3322 95.6206 77.423 96.7894C77.625 99.4554 77.819 102.122 77.9761 104.793C78.1955 108.55 78.2016 112.333 78.6389 116.064C78.905 118.386 79.8 120.639 80.4175 122.923ZM117.444 92.9838C113.885 92.3918 110.717 91.8637 107.128 91.2674C106.975 94.4731 106.679 97.1363 106.774 99.7857C106.861 102.213 107.307 104.636 107.732 107.036C107.836 107.625 108.474 108.122 108.868 108.659C109.407 108.148 110.058 107.715 110.454 107.114C111.137 106.074 111.456 104.727 112.296 103.864C115.192 100.894 115.389 96.7892 117.444 92.9838ZM122.67 91.8922C122.779 89.815 122.886 87.8267 123 85.7087C121.309 86.3916 121.108 86.6987 120.455 89.3117C119.884 91.6001 119.992 91.7459 122.67 91.8922ZM99.9541 90.7195C99.6473 92.5395 99.3685 94.1877 99.048 96.0878C101.18 93.7498 101.7 91.3938 99.9541 90.7195Z" fill="#F5D5ED"/>
<path d="M53.7841 172.595C51.6595 172.525 49.7934 172.698 48.0368 172.352C44.8651 171.728 42.297 169.927 41.2166 166.828C40.0004 163.349 38.9315 159.759 38.3913 156.127C38.0294 153.687 38.4565 151.047 38.9494 148.578C39.8801 143.887 41.0073 139.23 42.2372 134.608C43.6558 129.284 45.4947 124.094 48.3432 119.341C50.3375 116.013 52.2246 112.568 54.6412 109.559C58.5014 104.756 62.9622 100.5 68.3877 97.4041C70.1594 96.3919 72.0075 95.4971 73.6802 94.3466C74.2869 93.9261 74.7775 92.9271 74.818 92.1676C75.0045 88.5892 74.9881 85.0012 75.1016 81.42C75.1782 79.0524 75.2689 76.679 75.5147 74.3267C75.7787 71.7791 76.3002 69.2597 76.5857 66.717C76.9536 63.436 77.1196 60.1339 77.5203 56.8586C77.8628 54.0547 78.426 51.2834 78.8649 48.492C79.0666 47.2099 79.2337 45.9174 79.3732 44.6253C79.8343 40.4386 80.2365 36.2432 80.7384 32.0617C81.1281 28.813 81.6596 25.58 82.0753 22.3343C82.323 20.4119 82.4664 18.4777 82.6539 16.5499C82.8236 16.5264 82.9886 16.5048 83.1582 16.4812C83.4064 16.806 83.6532 17.1342 84.1944 17.8453C84.5956 16.3921 84.9208 15.2078 85.3173 13.7564C84.577 14.0281 84.2179 14.1607 83.473 14.4343C83.9593 11.5845 84.2393 8.98883 84.8812 6.48023C85.4868 4.11652 88.9253 2.00597 90.6033 2.96812C91.8768 3.70078 93.1161 4.92256 93.7632 6.22747C94.8399 8.4003 95.2264 10.9123 96.2754 13.1049C98.2439 17.2182 98.396 21.6581 99.0292 26.0196C99.6748 30.4644 100.399 34.8986 100.897 39.3604C101.749 46.9607 102.423 54.569 101.924 62.2392C101.653 66.3798 101.743 70.5445 101.514 74.6902C101.383 77.0665 100.853 79.4184 100.662 81.7974C100.49 83.9148 100.537 86.0487 100.485 88.2626C102.268 89.471 102.694 89.3659 103.437 87.2073C104.094 85.3055 104.599 83.3532 105.263 81.4542C105.539 80.6631 106.145 79.9888 106.428 79.2005C106.939 77.7538 107.26 76.24 107.787 74.8035C108.03 74.1393 108.57 73.5861 108.976 72.9813C109.188 72.9984 109.402 73.0168 109.614 73.0339C109.803 73.7478 110.222 74.4904 110.137 75.1691C109.892 77.1203 109.519 79.0648 109.049 80.9773C108.756 82.1673 108.757 83.5642 107.156 84.1162C106.714 84.2693 106.551 85.2317 106.258 85.8171C105.871 86.5855 105.475 87.3545 105.06 88.1621C105.495 88.2326 105.981 88.3123 106.452 88.3899C106.828 87.2149 107.202 86.0352 107.576 84.8554C107.746 84.8787 107.916 84.9021 108.087 84.9221C108.021 86.28 107.956 87.6379 107.878 89.2441C108.958 89.5186 110.088 89.8526 111.235 90.0883C112.76 90.4019 114.307 90.604 115.832 90.9176C117.612 91.2822 118.322 90.7718 118.535 88.9247C118.589 88.4633 118.61 87.8749 118.891 87.5814C121.076 85.3042 120.529 82.0666 121.8 79.4706C122.314 78.423 122.416 77.1739 122.91 76.1101C123.153 75.5898 123.862 75.2896 124.358 74.89C124.601 75.482 125.085 76.0874 125.05 76.6622C124.893 79.1601 124.422 81.6418 124.375 84.135C124.33 86.4922 124.552 88.8738 124.886 91.2118C125.171 93.2218 126.975 94.2476 128.92 93.5996C131.536 92.7254 133.573 91.3077 134.122 88.2497C134.816 84.3776 135.79 80.5549 136.623 76.7052C136.877 75.5228 137.022 74.3111 137.326 73.1413C137.457 72.6258 137.738 71.9459 138.151 71.7382C139.519 71.043 139.386 69.7592 139.443 68.6476C139.532 66.8935 139.196 65.1086 139.368 63.3695C139.534 61.7214 140.047 60.0919 140.566 58.504C140.72 58.0256 141.401 57.7178 141.842 57.3303C142.141 57.7696 142.686 58.2055 142.698 58.6509C142.744 60.6168 142.679 62.5874 142.574 64.5529C142.467 66.588 142.423 68.6493 142.077 70.6482C141.322 74.9903 140.592 79.3548 139.458 83.603C138.714 86.397 137.286 89.006 136.169 91.7009C136.008 92.0908 135.833 92.4752 135.724 92.8825C134.929 95.8079 135.237 96.0444 137.975 97.1904C142.388 99.0401 146.757 101.024 151.022 103.195C158.658 107.082 165.594 111.986 171.107 118.616C174.599 122.817 177.698 127.416 179.243 132.685C180.888 138.291 182.357 144.028 183.04 149.811C183.733 155.66 183.341 161.654 181.148 167.287C179.631 171.178 178.261 175.212 176.111 178.747C173.861 182.449 170.853 185.716 167.962 188.985C167.076 189.989 165.485 190.365 163.821 191.239C167.089 187.275 170.249 183.938 172.805 180.187C174.856 177.176 176.199 173.677 177.79 170.363C178.381 169.132 178.842 167.836 179.275 166.541C181.516 159.792 182.093 152.896 180.742 145.909C180.022 142.182 179.064 138.494 178.088 134.822C176.594 129.192 173.436 124.455 169.737 120.072C160.509 109.137 148.413 102.718 134.908 98.0971C134.671 98.5766 134.341 98.9981 134.248 99.4705C133.157 104.794 132.142 110.133 131.034 115.453C129.269 123.93 127.454 132.396 125.653 140.866C123.611 150.47 121.55 160.07 119.524 169.681C119.169 171.372 118.983 173.097 118.656 174.796C117.617 180.203 116.494 185.595 115.513 191.014C115.14 193.068 115.151 195.187 114.833 197.252C114.295 200.736 113.556 204.187 113.046 207.671C112.561 210.982 112.335 214.333 111.856 217.646C111.321 221.362 110.505 225.039 110.039 228.763C109.329 234.45 108.875 240.169 108.194 245.861C107.861 248.633 107.313 251.387 106.731 254.12C106.617 254.65 105.912 255.053 105.48 255.515C105.084 254.981 104.416 254.482 104.345 253.907C104.075 251.783 103.941 249.632 103.871 247.489C103.491 235.816 99.5192 225.246 93.6695 215.36C91.6222 211.9 88.9457 208.708 86.1009 205.848C82.2084 201.935 78.1513 198.071 73.6579 194.905C70.0449 192.355 65.8106 190.517 61.6209 189.005C56.6842 187.224 51.5332 185.99 46.4029 184.82C44.0605 184.285 41.5472 184.543 39.1247 184.287C38.0967 184.179 36.3329 183.821 36.2512 183.339C35.9849 181.82 37.689 182.001 38.6188 181.488C41.2215 180.051 43.8184 178.599 46.3857 177.096C48.8042 175.661 51.1959 174.167 53.7841 172.595ZM102.242 149.276C102.33 149.469 102.414 149.663 102.502 149.856C92.5375 154.647 82.3699 159.062 72.6687 164.34C62.9116 169.65 53.619 175.819 44.1264 181.613C46.9302 182.74 49.52 183.364 52.0843 184.061C56.2315 185.184 60.4703 186.076 64.4799 187.58C69.0664 189.302 73.5029 191.501 77.2444 194.778C81.0669 198.124 85.0589 201.333 88.5037 205.046C92.8668 209.746 96.3204 215.128 99.0802 221C101.682 226.537 103.833 232.107 104.307 238.26C104.423 239.774 104.933 241.26 105.258 242.76C105.497 242.738 105.733 242.714 105.972 242.692C106.258 240.801 106.529 238.908 106.828 237.022C107.114 235.213 107.486 233.416 107.709 231.601C107.905 230.012 107.866 228.396 108.08 226.811C108.603 222.935 109.209 219.069 109.784 215.203C110.168 212.6 110.535 209.993 110.947 207.397C111.354 204.815 111.876 202.249 112.227 199.659C112.935 194.451 113.382 189.201 114.268 184.024C115.439 177.193 116.899 170.407 118.299 163.616C119.515 157.724 120.831 151.854 122.09 145.972C122.862 142.374 123.63 138.775 124.359 135.167C125.326 130.37 126.231 125.563 127.194 120.764C128.002 116.74 128.847 112.728 129.691 108.711C129.814 108.13 130.017 107.562 130.146 106.984C130.869 103.732 131.583 100.481 132.334 97.0768C131.325 96.8084 130.518 96.3153 129.867 96.4755C127.22 97.1223 125.307 95.8408 123.203 94.5699C122.119 93.9157 120.261 93.5971 119.214 94.093C118.015 94.6629 117.309 96.2949 116.424 97.4938C116.267 97.7056 116.153 98.2441 116.237 98.2979C117.562 99.1691 116.676 100.134 116.287 100.944C114.918 103.796 113.597 106.684 111.982 109.395C110.31 112.196 107.439 111.978 106.029 109.016C105.371 107.633 104.791 106.09 104.695 104.584C104.441 100.581 103.857 96.5444 105.023 92.5591C105.113 92.2454 104.722 91.7288 104.436 91.4115C104.361 91.3263 103.681 91.5484 103.563 91.7768C101.923 94.8991 100.287 98.0274 98.7441 101.198C97.1165 104.544 96.1866 108.08 95.4313 111.751C94.4667 116.421 92.8518 120.973 91.2948 125.5C89.1642 131.689 86.404 137.598 83.2544 143.354C80.776 147.882 78.2018 152.293 74.7956 156.195C73.0321 158.217 71.3668 160.323 69.655 162.39C80.468 157.754 90.9126 152.404 102.242 149.276ZM93.0371 112.92C92.8244 112.84 92.6164 112.758 92.4037 112.678C92.0132 113.114 91.5568 113.51 91.236 113.994C89.6347 116.426 88.1715 118.959 86.4487 121.298C85.4459 122.659 84.215 123.996 82.7976 124.877C80.2569 126.457 78.1863 125.567 77.6437 122.64C76.8623 118.42 76.2991 114.153 75.8216 109.887C75.4579 106.64 75.3652 103.36 75.1845 100.094C75.1187 98.9119 75.1432 97.7283 75.1244 96.1679C68.6389 99.7432 62.8123 103.263 58.1681 108.472C53.8969 113.27 50.7301 118.766 48.1378 124.561C44.6507 132.363 42.9347 140.713 41.1667 149.037C39.9019 154.991 40.7641 160.555 43.4045 165.96C44.7309 168.681 47.1429 170.18 49.8254 170.184C52.406 170.188 55.1826 169.369 57.5172 168.203C60.3338 166.795 62.8914 164.777 65.3545 162.771C67.8682 160.727 70.5269 158.654 72.3651 156.054C73.5006 154.447 74.8142 152.891 75.8074 151.195C79.212 145.387 82.6569 139.577 85.6015 133.533C88.0916 128.429 89.9631 123.018 91.9863 117.694C92.5602 116.191 92.6999 114.521 93.0371 112.92ZM77.5123 92.4922C77.6796 92.5027 77.8678 92.557 78.033 92.516C82.262 91.5238 86.4782 90.4679 90.7218 89.5441C92.5221 89.1523 94.3747 88.9265 96.2147 88.8164C97.6573 88.7333 98.0393 87.8651 98.1919 86.7304C98.5041 84.4251 98.8532 82.1154 99.0256 79.7991C99.3036 76.0557 99.5148 72.3042 99.6402 68.5524C99.8244 63.1279 100.076 57.7001 99.9812 52.2812C99.9089 48.1863 99.4114 44.0915 98.9733 40.0133C98.6561 37.0501 97.934 34.1225 97.7279 31.1545C97.2033 23.6583 95.9248 16.3346 93.0096 9.38436C92.2268 7.52015 91.3572 5.50699 89.2187 4.63948C87.1865 6.74559 85.4735 14.8235 86.486 16.6227C85.9707 17.4359 85.232 18.11 85.1143 18.8767C84.2478 24.4798 83.4795 30.1001 82.734 35.7219C82.294 39.0356 81.8707 42.3562 81.618 45.6888C81.5021 47.1975 80.6232 48.8631 82.0433 50.261C79.7482 52.3327 75.9554 87.5619 77.5123 92.4922ZM80.4175 122.923C80.6418 122.984 80.8647 123.049 81.0857 123.109C81.7084 122.508 82.4148 121.969 82.9366 121.291C85.2923 118.222 87.7511 115.216 89.8708 111.991C91.8591 108.962 93.683 105.782 95.1634 102.481C96.0451 100.516 96.1459 98.1936 96.5584 96.0233C96.8927 94.2693 97.1714 92.5079 97.479 90.7429C96.0375 90.9083 94.9698 90.9902 93.9153 91.1633C88.8526 91.9828 83.6885 92.3392 78.8936 94.428C77.7948 94.9066 77.3322 95.6206 77.423 96.7894C77.625 99.4554 77.819 102.122 77.9761 104.793C78.1955 108.55 78.2016 112.333 78.6389 116.064C78.905 118.386 79.8 120.639 80.4175 122.923ZM117.444 92.9838C113.885 92.3918 110.717 91.8637 107.128 91.2674C106.975 94.4731 106.679 97.1363 106.774 99.7857C106.861 102.213 107.307 104.636 107.732 107.036C107.836 107.625 108.474 108.122 108.868 108.659C109.407 108.148 110.058 107.715 110.454 107.114C111.137 106.074 111.456 104.727 112.296 103.864C115.192 100.894 115.389 96.7892 117.444 92.9838ZM122.67 91.8922C122.779 89.815 122.886 87.8267 123 85.7087C121.309 86.3916 121.108 86.6987 120.455 89.3117C119.884 91.6001 119.992 91.7459 122.67 91.8922ZM99.9541 90.7195C99.6473 92.5395 99.3685 94.1877 99.048 96.0878C101.18 93.7498 101.7 91.3938 99.9541 90.7195Z" stroke="#F5D5ED" stroke-width="2" mask="url(#path-1-outside-1)"/>
</svg>
