<svg width="228" height="270" viewBox="0 0 228 270" fill="none" xmlns="http://www.w3.org/2000/svg">
<mask id="path-1-outside-1" maskUnits="userSpaceOnUse" x="-2.71001" y="-1.17599" width="230.894" height="273.216" fill="black">
<rect fill="white" x="-2.71001" y="-1.17599" width="230.894" height="273.216"/>
<path d="M53.784 172.595C51.6594 172.525 49.7933 172.698 48.0367 172.352C44.865 171.728 42.2969 169.927 41.2165 166.828C40.0003 163.349 38.9314 159.759 38.3912 156.127C38.0293 153.687 38.4564 151.047 38.9493 148.578C39.88 143.887 41.0072 139.23 42.2371 134.608C43.6557 129.284 45.4946 124.094 48.3431 119.341C50.3374 116.013 52.2245 112.568 54.6411 109.559C58.5013 104.756 62.9621 100.5 68.3876 97.4041C70.1593 96.3919 72.0074 95.4971 73.6801 94.3466C74.2868 93.9261 74.7774 92.9271 74.8179 92.1676C75.0044 88.5892 74.9881 85.0012 75.1016 81.42C75.1781 79.0524 75.2688 76.679 75.5146 74.3267C75.7786 71.7791 76.3002 69.2597 76.5856 66.717C76.9535 63.436 77.1195 60.1339 77.5202 56.8586C77.8627 54.0547 78.4259 51.2834 78.8648 48.492C79.0665 47.2099 79.2336 45.9174 79.3732 44.6253C79.8342 40.4386 80.2364 36.2432 80.7383 32.0617C81.128 28.813 81.6595 25.58 82.0752 22.3343C82.3229 20.4119 82.4663 18.4777 82.6538 16.5499C82.8235 16.5264 82.9885 16.5048 83.1582 16.4812C83.4063 16.806 83.6531 17.1342 84.1943 17.8453C84.5955 16.3921 84.9207 15.2078 85.3172 13.7564C84.5769 14.0281 84.2179 14.1607 83.4729 14.4343C83.9592 11.5845 84.2392 8.98883 84.8812 6.48023C85.4867 4.11652 88.9252 2.00597 90.6033 2.96812C91.8768 3.70078 93.116 4.92256 93.7631 6.22747C94.8398 8.4003 95.2263 10.9123 96.2753 13.1049C98.2438 17.2182 98.3959 21.6581 99.0291 26.0196C99.6747 30.4644 100.399 34.8986 100.897 39.3604C101.749 46.9607 102.423 54.569 101.923 62.2392C101.653 66.3798 101.743 70.5445 101.514 74.6902C101.383 77.0665 100.852 79.4184 100.662 81.7974C100.49 83.9148 100.537 86.0487 100.485 88.2626C102.268 89.471 102.694 89.3659 103.437 87.2073C104.094 85.3055 104.599 83.3532 105.263 81.4542C105.539 80.6631 106.145 79.9888 106.427 79.2005C106.939 77.7538 107.26 76.24 107.787 74.8035C108.03 74.1393 108.57 73.5861 108.976 72.9813C109.188 72.9984 109.402 73.0168 109.614 73.0339C109.803 73.7478 110.222 74.4904 110.136 75.1691C109.892 77.1203 109.519 79.0648 109.049 80.9773C108.756 82.1673 108.757 83.5642 107.156 84.1162C106.714 84.2693 106.551 85.2317 106.258 85.8171C105.871 86.5855 105.475 87.3545 105.06 88.1621C105.495 88.2326 105.981 88.3123 106.452 88.3899C106.828 87.2149 107.202 86.0352 107.576 84.8554C107.746 84.8787 107.916 84.9021 108.087 84.9221C108.021 86.28 107.956 87.6379 107.878 89.2441C108.958 89.5186 110.088 89.8526 111.235 90.0883C112.76 90.4019 114.307 90.604 115.832 90.9176C117.612 91.2822 118.322 90.7718 118.535 88.9247C118.589 88.4633 118.61 87.8749 118.891 87.5814C121.076 85.3042 120.528 82.0666 121.799 79.4706C122.314 78.423 122.416 77.1739 122.91 76.1101C123.152 75.5898 123.862 75.2896 124.358 74.89C124.601 75.482 125.085 76.0874 125.05 76.6622C124.893 79.1601 124.422 81.6418 124.375 84.135C124.33 86.4922 124.552 88.8738 124.886 91.2118C125.171 93.2218 126.975 94.2476 128.92 93.5996C131.536 92.7254 133.573 91.3077 134.122 88.2497C134.816 84.3776 135.79 80.5549 136.623 76.7052C136.877 75.5228 137.022 74.3111 137.326 73.1413C137.457 72.6258 137.738 71.9459 138.151 71.7382C139.519 71.043 139.386 69.7592 139.443 68.6476C139.532 66.8935 139.196 65.1086 139.368 63.3695C139.533 61.7214 140.046 60.0919 140.566 58.504C140.72 58.0256 141.401 57.7178 141.842 57.3303C142.141 57.7696 142.686 58.2055 142.697 58.6509C142.744 60.6168 142.679 62.5874 142.574 64.5529C142.467 66.588 142.423 68.6493 142.077 70.6482C141.322 74.9903 140.592 79.3548 139.458 83.603C138.714 86.397 137.285 89.006 136.169 91.7009C136.008 92.0908 135.833 92.4752 135.724 92.8825C134.929 95.8079 135.237 96.0444 137.975 97.1904C142.387 99.0401 146.757 101.024 151.021 103.195C158.658 107.082 165.594 111.986 171.107 118.616C174.599 122.817 177.697 127.416 179.243 132.685C180.888 138.291 182.357 144.028 183.04 149.811C183.733 155.66 183.341 161.654 181.148 167.287C179.631 171.178 178.261 175.212 176.111 178.747C173.86 182.449 170.853 185.716 167.962 188.985C167.076 189.989 165.485 190.365 163.821 191.239C167.089 187.275 170.249 183.938 172.805 180.187C174.856 177.176 176.199 173.677 177.79 170.363C178.38 169.132 178.842 167.836 179.275 166.541C181.516 159.792 182.093 152.896 180.742 145.909C180.022 142.182 179.064 138.494 178.088 134.822C176.594 129.192 173.435 124.455 169.737 120.072C160.509 109.137 148.413 102.718 134.908 98.0971C134.671 98.5766 134.341 98.9981 134.248 99.4705C133.157 104.794 132.142 110.133 131.034 115.453C129.269 123.93 127.454 132.396 125.653 140.866C123.611 150.47 121.55 160.07 119.524 169.681C119.169 171.372 118.983 173.097 118.656 174.796C117.617 180.203 116.494 185.595 115.513 191.014C115.14 193.068 115.151 195.187 114.833 197.252C114.295 200.736 113.556 204.187 113.046 207.671C112.56 210.982 112.335 214.333 111.856 217.646C111.321 221.362 110.504 225.039 110.039 228.763C109.329 234.45 108.875 240.169 108.194 245.861C107.861 248.633 107.313 251.387 106.73 254.12C106.617 254.65 105.912 255.053 105.479 255.515C105.084 254.981 104.416 254.482 104.345 253.907C104.075 251.783 103.941 249.632 103.871 247.489C103.491 235.816 99.5191 225.246 93.6694 215.36C91.6221 211.9 88.9456 208.708 86.1008 205.848C82.2083 201.935 78.1512 198.071 73.6578 194.905C70.0448 192.355 65.8105 190.517 61.6208 189.005C56.6841 187.224 51.5331 185.99 46.4028 184.82C44.0604 184.285 41.5471 184.543 39.1246 184.287C38.0966 184.179 36.3328 183.821 36.2511 183.339C35.9848 181.82 37.6889 182.001 38.6187 181.488C41.2214 180.051 43.8183 178.599 46.3856 177.096C48.8041 175.661 51.1959 174.167 53.784 172.595ZM102.242 149.276C102.33 149.469 102.413 149.663 102.502 149.856C92.5374 154.647 82.3698 159.062 72.6686 164.34C62.9115 169.65 53.6189 175.819 44.1263 181.613C46.9301 182.74 49.5199 183.364 52.0842 184.061C56.2314 185.184 60.4702 186.076 64.4798 187.58C69.0663 189.302 73.5028 191.501 77.2443 194.778C81.0668 198.124 85.0588 201.333 88.5036 205.046C92.8667 209.746 96.3204 215.128 99.0802 221C101.682 226.537 103.833 232.107 104.307 238.26C104.423 239.774 104.933 241.26 105.258 242.76C105.497 242.738 105.733 242.714 105.972 242.692C106.258 240.801 106.529 238.908 106.828 237.022C107.114 235.213 107.486 233.416 107.709 231.601C107.905 230.012 107.866 228.396 108.079 226.811C108.603 222.935 109.209 219.069 109.783 215.203C110.168 212.6 110.535 209.993 110.947 207.397C111.354 204.815 111.875 202.249 112.227 199.659C112.935 194.451 113.382 189.201 114.268 184.024C115.439 177.193 116.899 170.407 118.299 163.616C119.515 157.724 120.831 151.854 122.09 145.972C122.862 142.374 123.63 138.775 124.359 135.167C125.326 130.37 126.231 125.563 127.194 120.764C128.001 116.74 128.847 112.728 129.69 108.711C129.813 108.13 130.017 107.562 130.146 106.984C130.869 103.732 131.583 100.481 132.334 97.0768C131.325 96.8084 130.518 96.3153 129.867 96.4755C127.22 97.1223 125.307 95.8408 123.202 94.5699C122.119 93.9157 120.261 93.5971 119.214 94.093C118.015 94.6629 117.309 96.2949 116.424 97.4938C116.267 97.7056 116.153 98.2441 116.236 98.2979C117.562 99.1691 116.676 100.134 116.287 100.944C114.918 103.796 113.597 106.684 111.982 109.395C110.31 112.196 107.439 111.978 106.029 109.016C105.371 107.633 104.791 106.09 104.695 104.584C104.441 100.581 103.857 96.5444 105.023 92.5591C105.113 92.2454 104.722 91.7288 104.435 91.4115C104.361 91.3263 103.681 91.5484 103.563 91.7768C101.922 94.8991 100.287 98.0274 98.744 101.198C97.1164 104.544 96.1865 108.08 95.4312 111.751C94.4666 116.421 92.8517 120.973 91.2947 125.5C89.1642 131.689 86.4039 137.598 83.2543 143.354C80.7759 147.882 78.2017 152.293 74.7955 156.195C73.032 158.217 71.3667 160.323 69.6549 162.39C80.4679 157.754 90.9125 152.404 102.242 149.276ZM93.0371 112.92C92.8243 112.84 92.6163 112.758 92.4036 112.678C92.0131 113.114 91.5567 113.51 91.2359 113.994C89.6346 116.426 88.1714 118.959 86.4486 121.298C85.4458 122.659 84.2149 123.996 82.7975 124.877C80.2569 126.457 78.1863 125.567 77.6436 122.64C76.8622 118.42 76.299 114.153 75.8215 109.887C75.4578 106.64 75.3651 103.36 75.1845 100.094C75.1186 98.9119 75.1431 97.7283 75.1243 96.1679C68.6388 99.7432 62.8122 103.263 58.1681 108.472C53.8968 113.27 50.73 118.766 48.1377 124.561C44.6506 132.363 42.9346 140.713 41.1666 149.037C39.9018 154.991 40.764 160.555 43.4044 165.96C44.7308 168.681 47.1428 170.18 49.8253 170.184C52.4059 170.188 55.1825 169.369 57.5171 168.203C60.3337 166.795 62.8914 164.777 65.3544 162.771C67.8681 160.727 70.5268 158.654 72.365 156.054C73.5005 154.447 74.8142 152.891 75.8073 151.195C79.212 145.387 82.6568 139.577 85.6014 133.533C88.0915 128.429 89.963 123.018 91.9862 117.694C92.5601 116.191 92.6998 114.521 93.0371 112.92ZM77.5122 92.4922C77.6795 92.5027 77.8677 92.557 78.0329 92.516C82.2619 91.5238 86.4781 90.4679 90.7217 89.5441C92.522 89.1523 94.3746 88.9265 96.2146 88.8164C97.6572 88.7333 98.0392 87.8651 98.1918 86.7304C98.504 84.4251 98.8531 82.1154 99.0255 79.7991C99.3036 76.0557 99.5147 72.3042 99.6401 68.5524C99.8243 63.1279 100.076 57.7001 99.9811 52.2812C99.9088 48.1863 99.4113 44.0915 98.9732 40.0133C98.656 37.0501 97.9339 34.1225 97.7278 31.1545C97.2032 23.6583 95.9247 16.3346 93.0095 9.38436C92.2267 7.52015 91.3571 5.50699 89.2186 4.63948C87.1864 6.74559 85.4734 14.8235 86.4859 16.6227C85.9706 17.4359 85.2319 18.11 85.1142 18.8767C84.2477 24.4798 83.4794 30.1001 82.7339 35.7219C82.2939 39.0356 81.8706 42.3562 81.6179 45.6888C81.502 47.1975 80.6231 48.8631 82.0432 50.261C79.7481 52.3327 75.9553 87.5619 77.5122 92.4922ZM80.4174 122.923C80.6417 122.984 80.8646 123.049 81.0856 123.109C81.7083 122.508 82.4147 121.969 82.9365 121.291C85.2922 118.222 87.751 115.216 89.8707 111.991C91.859 108.962 93.6829 105.782 95.1634 102.481C96.045 100.516 96.1458 98.1936 96.5583 96.0233C96.8926 94.2693 97.1713 92.5079 97.4789 90.7429C96.0374 90.9083 94.9698 90.9902 93.9152 91.1633C88.8525 91.9828 83.6885 92.3392 78.8935 94.428C77.7947 94.9066 77.3321 95.6206 77.4229 96.7894C77.6249 99.4554 77.8189 102.122 77.9761 104.793C78.1954 108.55 78.2015 112.333 78.6388 116.064C78.905 118.386 79.7999 120.639 80.4174 122.923ZM117.444 92.9838C113.885 92.3918 110.717 91.8637 107.128 91.2674C106.975 94.4731 106.679 97.1363 106.774 99.7857C106.861 102.213 107.307 104.636 107.732 107.036C107.836 107.625 108.474 108.122 108.868 108.659C109.407 108.148 110.058 107.715 110.454 107.114C111.137 106.074 111.456 104.727 112.296 103.864C115.192 100.894 115.389 96.7892 117.444 92.9838ZM122.67 91.8922C122.779 89.815 122.886 87.8267 123 85.7087C121.309 86.3916 121.108 86.6987 120.455 89.3117C119.884 91.6001 119.992 91.7459 122.67 91.8922ZM99.954 90.7195C99.6472 92.5395 99.3684 94.1877 99.0479 96.0878C101.18 93.7498 101.7 91.3938 99.954 90.7195Z"/>
</mask>
<path d="M53.784 172.595C51.6594 172.525 49.7933 172.698 48.0367 172.352C44.865 171.728 42.2969 169.927 41.2165 166.828C40.0003 163.349 38.9314 159.759 38.3912 156.127C38.0293 153.687 38.4564 151.047 38.9493 148.578C39.88 143.887 41.0072 139.23 42.2371 134.608C43.6557 129.284 45.4946 124.094 48.3431 119.341C50.3374 116.013 52.2245 112.568 54.6411 109.559C58.5013 104.756 62.9621 100.5 68.3876 97.4041C70.1593 96.3919 72.0074 95.4971 73.6801 94.3466C74.2868 93.9261 74.7774 92.9271 74.8179 92.1676C75.0044 88.5892 74.9881 85.0012 75.1016 81.42C75.1781 79.0524 75.2688 76.679 75.5146 74.3267C75.7786 71.7791 76.3002 69.2597 76.5856 66.717C76.9535 63.436 77.1195 60.1339 77.5202 56.8586C77.8627 54.0547 78.4259 51.2834 78.8648 48.492C79.0665 47.2099 79.2336 45.9174 79.3732 44.6253C79.8342 40.4386 80.2364 36.2432 80.7383 32.0617C81.128 28.813 81.6595 25.58 82.0752 22.3343C82.3229 20.4119 82.4663 18.4777 82.6538 16.5499C82.8235 16.5264 82.9885 16.5048 83.1582 16.4812C83.4063 16.806 83.6531 17.1342 84.1943 17.8453C84.5955 16.3921 84.9207 15.2078 85.3172 13.7564C84.5769 14.0281 84.2179 14.1607 83.4729 14.4343C83.9592 11.5845 84.2392 8.98883 84.8812 6.48023C85.4867 4.11652 88.9252 2.00597 90.6033 2.96812C91.8768 3.70078 93.116 4.92256 93.7631 6.22747C94.8398 8.4003 95.2263 10.9123 96.2753 13.1049C98.2438 17.2182 98.3959 21.6581 99.0291 26.0196C99.6747 30.4644 100.399 34.8986 100.897 39.3604C101.749 46.9607 102.423 54.569 101.923 62.2392C101.653 66.3798 101.743 70.5445 101.514 74.6902C101.383 77.0665 100.852 79.4184 100.662 81.7974C100.49 83.9148 100.537 86.0487 100.485 88.2626C102.268 89.471 102.694 89.3659 103.437 87.2073C104.094 85.3055 104.599 83.3532 105.263 81.4542C105.539 80.6631 106.145 79.9888 106.427 79.2005C106.939 77.7538 107.26 76.24 107.787 74.8035C108.03 74.1393 108.57 73.5861 108.976 72.9813C109.188 72.9984 109.402 73.0168 109.614 73.0339C109.803 73.7478 110.222 74.4904 110.136 75.1691C109.892 77.1203 109.519 79.0648 109.049 80.9773C108.756 82.1673 108.757 83.5642 107.156 84.1162C106.714 84.2693 106.551 85.2317 106.258 85.8171C105.871 86.5855 105.475 87.3545 105.06 88.1621C105.495 88.2326 105.981 88.3123 106.452 88.3899C106.828 87.2149 107.202 86.0352 107.576 84.8554C107.746 84.8787 107.916 84.9021 108.087 84.9221C108.021 86.28 107.956 87.6379 107.878 89.2441C108.958 89.5186 110.088 89.8526 111.235 90.0883C112.76 90.4019 114.307 90.604 115.832 90.9176C117.612 91.2822 118.322 90.7718 118.535 88.9247C118.589 88.4633 118.61 87.8749 118.891 87.5814C121.076 85.3042 120.528 82.0666 121.799 79.4706C122.314 78.423 122.416 77.1739 122.91 76.1101C123.152 75.5898 123.862 75.2896 124.358 74.89C124.601 75.482 125.085 76.0874 125.05 76.6622C124.893 79.1601 124.422 81.6418 124.375 84.135C124.33 86.4922 124.552 88.8738 124.886 91.2118C125.171 93.2218 126.975 94.2476 128.92 93.5996C131.536 92.7254 133.573 91.3077 134.122 88.2497C134.816 84.3776 135.79 80.5549 136.623 76.7052C136.877 75.5228 137.022 74.3111 137.326 73.1413C137.457 72.6258 137.738 71.9459 138.151 71.7382C139.519 71.043 139.386 69.7592 139.443 68.6476C139.532 66.8935 139.196 65.1086 139.368 63.3695C139.533 61.7214 140.046 60.0919 140.566 58.504C140.72 58.0256 141.401 57.7178 141.842 57.3303C142.141 57.7696 142.686 58.2055 142.697 58.6509C142.744 60.6168 142.679 62.5874 142.574 64.5529C142.467 66.588 142.423 68.6493 142.077 70.6482C141.322 74.9903 140.592 79.3548 139.458 83.603C138.714 86.397 137.285 89.006 136.169 91.7009C136.008 92.0908 135.833 92.4752 135.724 92.8825C134.929 95.8079 135.237 96.0444 137.975 97.1904C142.387 99.0401 146.757 101.024 151.021 103.195C158.658 107.082 165.594 111.986 171.107 118.616C174.599 122.817 177.697 127.416 179.243 132.685C180.888 138.291 182.357 144.028 183.04 149.811C183.733 155.66 183.341 161.654 181.148 167.287C179.631 171.178 178.261 175.212 176.111 178.747C173.86 182.449 170.853 185.716 167.962 188.985C167.076 189.989 165.485 190.365 163.821 191.239C167.089 187.275 170.249 183.938 172.805 180.187C174.856 177.176 176.199 173.677 177.79 170.363C178.38 169.132 178.842 167.836 179.275 166.541C181.516 159.792 182.093 152.896 180.742 145.909C180.022 142.182 179.064 138.494 178.088 134.822C176.594 129.192 173.435 124.455 169.737 120.072C160.509 109.137 148.413 102.718 134.908 98.0971C134.671 98.5766 134.341 98.9981 134.248 99.4705C133.157 104.794 132.142 110.133 131.034 115.453C129.269 123.93 127.454 132.396 125.653 140.866C123.611 150.47 121.55 160.07 119.524 169.681C119.169 171.372 118.983 173.097 118.656 174.796C117.617 180.203 116.494 185.595 115.513 191.014C115.14 193.068 115.151 195.187 114.833 197.252C114.295 200.736 113.556 204.187 113.046 207.671C112.56 210.982 112.335 214.333 111.856 217.646C111.321 221.362 110.504 225.039 110.039 228.763C109.329 234.45 108.875 240.169 108.194 245.861C107.861 248.633 107.313 251.387 106.73 254.12C106.617 254.65 105.912 255.053 105.479 255.515C105.084 254.981 104.416 254.482 104.345 253.907C104.075 251.783 103.941 249.632 103.871 247.489C103.491 235.816 99.5191 225.246 93.6694 215.36C91.6221 211.9 88.9456 208.708 86.1008 205.848C82.2083 201.935 78.1512 198.071 73.6578 194.905C70.0448 192.355 65.8105 190.517 61.6208 189.005C56.6841 187.224 51.5331 185.99 46.4028 184.82C44.0604 184.285 41.5471 184.543 39.1246 184.287C38.0966 184.179 36.3328 183.821 36.2511 183.339C35.9848 181.82 37.6889 182.001 38.6187 181.488C41.2214 180.051 43.8183 178.599 46.3856 177.096C48.8041 175.661 51.1959 174.167 53.784 172.595ZM102.242 149.276C102.33 149.469 102.413 149.663 102.502 149.856C92.5374 154.647 82.3698 159.062 72.6686 164.34C62.9115 169.65 53.6189 175.819 44.1263 181.613C46.9301 182.74 49.5199 183.364 52.0842 184.061C56.2314 185.184 60.4702 186.076 64.4798 187.58C69.0663 189.302 73.5028 191.501 77.2443 194.778C81.0668 198.124 85.0588 201.333 88.5036 205.046C92.8667 209.746 96.3204 215.128 99.0802 221C101.682 226.537 103.833 232.107 104.307 238.26C104.423 239.774 104.933 241.26 105.258 242.76C105.497 242.738 105.733 242.714 105.972 242.692C106.258 240.801 106.529 238.908 106.828 237.022C107.114 235.213 107.486 233.416 107.709 231.601C107.905 230.012 107.866 228.396 108.079 226.811C108.603 222.935 109.209 219.069 109.783 215.203C110.168 212.6 110.535 209.993 110.947 207.397C111.354 204.815 111.875 202.249 112.227 199.659C112.935 194.451 113.382 189.201 114.268 184.024C115.439 177.193 116.899 170.407 118.299 163.616C119.515 157.724 120.831 151.854 122.09 145.972C122.862 142.374 123.63 138.775 124.359 135.167C125.326 130.37 126.231 125.563 127.194 120.764C128.001 116.74 128.847 112.728 129.69 108.711C129.813 108.13 130.017 107.562 130.146 106.984C130.869 103.732 131.583 100.481 132.334 97.0768C131.325 96.8084 130.518 96.3153 129.867 96.4755C127.22 97.1223 125.307 95.8408 123.202 94.5699C122.119 93.9157 120.261 93.5971 119.214 94.093C118.015 94.6629 117.309 96.2949 116.424 97.4938C116.267 97.7056 116.153 98.2441 116.236 98.2979C117.562 99.1691 116.676 100.134 116.287 100.944C114.918 103.796 113.597 106.684 111.982 109.395C110.31 112.196 107.439 111.978 106.029 109.016C105.371 107.633 104.791 106.09 104.695 104.584C104.441 100.581 103.857 96.5444 105.023 92.5591C105.113 92.2454 104.722 91.7288 104.435 91.4115C104.361 91.3263 103.681 91.5484 103.563 91.7768C101.922 94.8991 100.287 98.0274 98.744 101.198C97.1164 104.544 96.1865 108.08 95.4312 111.751C94.4666 116.421 92.8517 120.973 91.2947 125.5C89.1642 131.689 86.4039 137.598 83.2543 143.354C80.7759 147.882 78.2017 152.293 74.7955 156.195C73.032 158.217 71.3667 160.323 69.6549 162.39C80.4679 157.754 90.9125 152.404 102.242 149.276ZM93.0371 112.92C92.8243 112.84 92.6163 112.758 92.4036 112.678C92.0131 113.114 91.5567 113.51 91.2359 113.994C89.6346 116.426 88.1714 118.959 86.4486 121.298C85.4458 122.659 84.2149 123.996 82.7975 124.877C80.2569 126.457 78.1863 125.567 77.6436 122.64C76.8622 118.42 76.299 114.153 75.8215 109.887C75.4578 106.64 75.3651 103.36 75.1845 100.094C75.1186 98.9119 75.1431 97.7283 75.1243 96.1679C68.6388 99.7432 62.8122 103.263 58.1681 108.472C53.8968 113.27 50.73 118.766 48.1377 124.561C44.6506 132.363 42.9346 140.713 41.1666 149.037C39.9018 154.991 40.764 160.555 43.4044 165.96C44.7308 168.681 47.1428 170.18 49.8253 170.184C52.4059 170.188 55.1825 169.369 57.5171 168.203C60.3337 166.795 62.8914 164.777 65.3544 162.771C67.8681 160.727 70.5268 158.654 72.365 156.054C73.5005 154.447 74.8142 152.891 75.8073 151.195C79.212 145.387 82.6568 139.577 85.6014 133.533C88.0915 128.429 89.963 123.018 91.9862 117.694C92.5601 116.191 92.6998 114.521 93.0371 112.92ZM77.5122 92.4922C77.6795 92.5027 77.8677 92.557 78.0329 92.516C82.2619 91.5238 86.4781 90.4679 90.7217 89.5441C92.522 89.1523 94.3746 88.9265 96.2146 88.8164C97.6572 88.7333 98.0392 87.8651 98.1918 86.7304C98.504 84.4251 98.8531 82.1154 99.0255 79.7991C99.3036 76.0557 99.5147 72.3042 99.6401 68.5524C99.8243 63.1279 100.076 57.7001 99.9811 52.2812C99.9088 48.1863 99.4113 44.0915 98.9732 40.0133C98.656 37.0501 97.9339 34.1225 97.7278 31.1545C97.2032 23.6583 95.9247 16.3346 93.0095 9.38436C92.2267 7.52015 91.3571 5.50699 89.2186 4.63948C87.1864 6.74559 85.4734 14.8235 86.4859 16.6227C85.9706 17.4359 85.2319 18.11 85.1142 18.8767C84.2477 24.4798 83.4794 30.1001 82.7339 35.7219C82.2939 39.0356 81.8706 42.3562 81.6179 45.6888C81.502 47.1975 80.6231 48.8631 82.0432 50.261C79.7481 52.3327 75.9553 87.5619 77.5122 92.4922ZM80.4174 122.923C80.6417 122.984 80.8646 123.049 81.0856 123.109C81.7083 122.508 82.4147 121.969 82.9365 121.291C85.2922 118.222 87.751 115.216 89.8707 111.991C91.859 108.962 93.6829 105.782 95.1634 102.481C96.045 100.516 96.1458 98.1936 96.5583 96.0233C96.8926 94.2693 97.1713 92.5079 97.4789 90.7429C96.0374 90.9083 94.9698 90.9902 93.9152 91.1633C88.8525 91.9828 83.6885 92.3392 78.8935 94.428C77.7947 94.9066 77.3321 95.6206 77.4229 96.7894C77.6249 99.4554 77.8189 102.122 77.9761 104.793C78.1954 108.55 78.2015 112.333 78.6388 116.064C78.905 118.386 79.7999 120.639 80.4174 122.923ZM117.444 92.9838C113.885 92.3918 110.717 91.8637 107.128 91.2674C106.975 94.4731 106.679 97.1363 106.774 99.7857C106.861 102.213 107.307 104.636 107.732 107.036C107.836 107.625 108.474 108.122 108.868 108.659C109.407 108.148 110.058 107.715 110.454 107.114C111.137 106.074 111.456 104.727 112.296 103.864C115.192 100.894 115.389 96.7892 117.444 92.9838ZM122.67 91.8922C122.779 89.815 122.886 87.8267 123 85.7087C121.309 86.3916 121.108 86.6987 120.455 89.3117C119.884 91.6001 119.992 91.7459 122.67 91.8922ZM99.954 90.7195C99.6472 92.5395 99.3684 94.1877 99.0479 96.0878C101.18 93.7498 101.7 91.3938 99.954 90.7195Z" fill="#3F238A"/>
<path d="M53.784 172.595C51.6594 172.525 49.7933 172.698 48.0367 172.352C44.865 171.728 42.2969 169.927 41.2165 166.828C40.0003 163.349 38.9314 159.759 38.3912 156.127C38.0293 153.687 38.4564 151.047 38.9493 148.578C39.88 143.887 41.0072 139.23 42.2371 134.608C43.6557 129.284 45.4946 124.094 48.3431 119.341C50.3374 116.013 52.2245 112.568 54.6411 109.559C58.5013 104.756 62.9621 100.5 68.3876 97.4041C70.1593 96.3919 72.0074 95.4971 73.6801 94.3466C74.2868 93.9261 74.7774 92.9271 74.8179 92.1676C75.0044 88.5892 74.9881 85.0012 75.1016 81.42C75.1781 79.0524 75.2688 76.679 75.5146 74.3267C75.7786 71.7791 76.3002 69.2597 76.5856 66.717C76.9535 63.436 77.1195 60.1339 77.5202 56.8586C77.8627 54.0547 78.4259 51.2834 78.8648 48.492C79.0665 47.2099 79.2336 45.9174 79.3732 44.6253C79.8342 40.4386 80.2364 36.2432 80.7383 32.0617C81.128 28.813 81.6595 25.58 82.0752 22.3343C82.3229 20.4119 82.4663 18.4777 82.6538 16.5499C82.8235 16.5264 82.9885 16.5048 83.1582 16.4812C83.4063 16.806 83.6531 17.1342 84.1943 17.8453C84.5955 16.3921 84.9207 15.2078 85.3172 13.7564C84.5769 14.0281 84.2179 14.1607 83.4729 14.4343C83.9592 11.5845 84.2392 8.98883 84.8812 6.48023C85.4867 4.11652 88.9252 2.00597 90.6033 2.96812C91.8768 3.70078 93.116 4.92256 93.7631 6.22747C94.8398 8.4003 95.2263 10.9123 96.2753 13.1049C98.2438 17.2182 98.3959 21.6581 99.0291 26.0196C99.6747 30.4644 100.399 34.8986 100.897 39.3604C101.749 46.9607 102.423 54.569 101.923 62.2392C101.653 66.3798 101.743 70.5445 101.514 74.6902C101.383 77.0665 100.852 79.4184 100.662 81.7974C100.49 83.9148 100.537 86.0487 100.485 88.2626C102.268 89.471 102.694 89.3659 103.437 87.2073C104.094 85.3055 104.599 83.3532 105.263 81.4542C105.539 80.6631 106.145 79.9888 106.427 79.2005C106.939 77.7538 107.26 76.24 107.787 74.8035C108.03 74.1393 108.57 73.5861 108.976 72.9813C109.188 72.9984 109.402 73.0168 109.614 73.0339C109.803 73.7478 110.222 74.4904 110.136 75.1691C109.892 77.1203 109.519 79.0648 109.049 80.9773C108.756 82.1673 108.757 83.5642 107.156 84.1162C106.714 84.2693 106.551 85.2317 106.258 85.8171C105.871 86.5855 105.475 87.3545 105.06 88.1621C105.495 88.2326 105.981 88.3123 106.452 88.3899C106.828 87.2149 107.202 86.0352 107.576 84.8554C107.746 84.8787 107.916 84.9021 108.087 84.9221C108.021 86.28 107.956 87.6379 107.878 89.2441C108.958 89.5186 110.088 89.8526 111.235 90.0883C112.76 90.4019 114.307 90.604 115.832 90.9176C117.612 91.2822 118.322 90.7718 118.535 88.9247C118.589 88.4633 118.61 87.8749 118.891 87.5814C121.076 85.3042 120.528 82.0666 121.799 79.4706C122.314 78.423 122.416 77.1739 122.91 76.1101C123.152 75.5898 123.862 75.2896 124.358 74.89C124.601 75.482 125.085 76.0874 125.05 76.6622C124.893 79.1601 124.422 81.6418 124.375 84.135C124.33 86.4922 124.552 88.8738 124.886 91.2118C125.171 93.2218 126.975 94.2476 128.92 93.5996C131.536 92.7254 133.573 91.3077 134.122 88.2497C134.816 84.3776 135.79 80.5549 136.623 76.7052C136.877 75.5228 137.022 74.3111 137.326 73.1413C137.457 72.6258 137.738 71.9459 138.151 71.7382C139.519 71.043 139.386 69.7592 139.443 68.6476C139.532 66.8935 139.196 65.1086 139.368 63.3695C139.533 61.7214 140.046 60.0919 140.566 58.504C140.72 58.0256 141.401 57.7178 141.842 57.3303C142.141 57.7696 142.686 58.2055 142.697 58.6509C142.744 60.6168 142.679 62.5874 142.574 64.5529C142.467 66.588 142.423 68.6493 142.077 70.6482C141.322 74.9903 140.592 79.3548 139.458 83.603C138.714 86.397 137.285 89.006 136.169 91.7009C136.008 92.0908 135.833 92.4752 135.724 92.8825C134.929 95.8079 135.237 96.0444 137.975 97.1904C142.387 99.0401 146.757 101.024 151.021 103.195C158.658 107.082 165.594 111.986 171.107 118.616C174.599 122.817 177.697 127.416 179.243 132.685C180.888 138.291 182.357 144.028 183.04 149.811C183.733 155.66 183.341 161.654 181.148 167.287C179.631 171.178 178.261 175.212 176.111 178.747C173.86 182.449 170.853 185.716 167.962 188.985C167.076 189.989 165.485 190.365 163.821 191.239C167.089 187.275 170.249 183.938 172.805 180.187C174.856 177.176 176.199 173.677 177.79 170.363C178.38 169.132 178.842 167.836 179.275 166.541C181.516 159.792 182.093 152.896 180.742 145.909C180.022 142.182 179.064 138.494 178.088 134.822C176.594 129.192 173.435 124.455 169.737 120.072C160.509 109.137 148.413 102.718 134.908 98.0971C134.671 98.5766 134.341 98.9981 134.248 99.4705C133.157 104.794 132.142 110.133 131.034 115.453C129.269 123.93 127.454 132.396 125.653 140.866C123.611 150.47 121.55 160.07 119.524 169.681C119.169 171.372 118.983 173.097 118.656 174.796C117.617 180.203 116.494 185.595 115.513 191.014C115.14 193.068 115.151 195.187 114.833 197.252C114.295 200.736 113.556 204.187 113.046 207.671C112.56 210.982 112.335 214.333 111.856 217.646C111.321 221.362 110.504 225.039 110.039 228.763C109.329 234.45 108.875 240.169 108.194 245.861C107.861 248.633 107.313 251.387 106.73 254.12C106.617 254.65 105.912 255.053 105.479 255.515C105.084 254.981 104.416 254.482 104.345 253.907C104.075 251.783 103.941 249.632 103.871 247.489C103.491 235.816 99.5191 225.246 93.6694 215.36C91.6221 211.9 88.9456 208.708 86.1008 205.848C82.2083 201.935 78.1512 198.071 73.6578 194.905C70.0448 192.355 65.8105 190.517 61.6208 189.005C56.6841 187.224 51.5331 185.99 46.4028 184.82C44.0604 184.285 41.5471 184.543 39.1246 184.287C38.0966 184.179 36.3328 183.821 36.2511 183.339C35.9848 181.82 37.6889 182.001 38.6187 181.488C41.2214 180.051 43.8183 178.599 46.3856 177.096C48.8041 175.661 51.1959 174.167 53.784 172.595ZM102.242 149.276C102.33 149.469 102.413 149.663 102.502 149.856C92.5374 154.647 82.3698 159.062 72.6686 164.34C62.9115 169.65 53.6189 175.819 44.1263 181.613C46.9301 182.74 49.5199 183.364 52.0842 184.061C56.2314 185.184 60.4702 186.076 64.4798 187.58C69.0663 189.302 73.5028 191.501 77.2443 194.778C81.0668 198.124 85.0588 201.333 88.5036 205.046C92.8667 209.746 96.3204 215.128 99.0802 221C101.682 226.537 103.833 232.107 104.307 238.26C104.423 239.774 104.933 241.26 105.258 242.76C105.497 242.738 105.733 242.714 105.972 242.692C106.258 240.801 106.529 238.908 106.828 237.022C107.114 235.213 107.486 233.416 107.709 231.601C107.905 230.012 107.866 228.396 108.079 226.811C108.603 222.935 109.209 219.069 109.783 215.203C110.168 212.6 110.535 209.993 110.947 207.397C111.354 204.815 111.875 202.249 112.227 199.659C112.935 194.451 113.382 189.201 114.268 184.024C115.439 177.193 116.899 170.407 118.299 163.616C119.515 157.724 120.831 151.854 122.09 145.972C122.862 142.374 123.63 138.775 124.359 135.167C125.326 130.37 126.231 125.563 127.194 120.764C128.001 116.74 128.847 112.728 129.69 108.711C129.813 108.13 130.017 107.562 130.146 106.984C130.869 103.732 131.583 100.481 132.334 97.0768C131.325 96.8084 130.518 96.3153 129.867 96.4755C127.22 97.1223 125.307 95.8408 123.202 94.5699C122.119 93.9157 120.261 93.5971 119.214 94.093C118.015 94.6629 117.309 96.2949 116.424 97.4938C116.267 97.7056 116.153 98.2441 116.236 98.2979C117.562 99.1691 116.676 100.134 116.287 100.944C114.918 103.796 113.597 106.684 111.982 109.395C110.31 112.196 107.439 111.978 106.029 109.016C105.371 107.633 104.791 106.09 104.695 104.584C104.441 100.581 103.857 96.5444 105.023 92.5591C105.113 92.2454 104.722 91.7288 104.435 91.4115C104.361 91.3263 103.681 91.5484 103.563 91.7768C101.922 94.8991 100.287 98.0274 98.744 101.198C97.1164 104.544 96.1865 108.08 95.4312 111.751C94.4666 116.421 92.8517 120.973 91.2947 125.5C89.1642 131.689 86.4039 137.598 83.2543 143.354C80.7759 147.882 78.2017 152.293 74.7955 156.195C73.032 158.217 71.3667 160.323 69.6549 162.39C80.4679 157.754 90.9125 152.404 102.242 149.276ZM93.0371 112.92C92.8243 112.84 92.6163 112.758 92.4036 112.678C92.0131 113.114 91.5567 113.51 91.2359 113.994C89.6346 116.426 88.1714 118.959 86.4486 121.298C85.4458 122.659 84.2149 123.996 82.7975 124.877C80.2569 126.457 78.1863 125.567 77.6436 122.64C76.8622 118.42 76.299 114.153 75.8215 109.887C75.4578 106.64 75.3651 103.36 75.1845 100.094C75.1186 98.9119 75.1431 97.7283 75.1243 96.1679C68.6388 99.7432 62.8122 103.263 58.1681 108.472C53.8968 113.27 50.73 118.766 48.1377 124.561C44.6506 132.363 42.9346 140.713 41.1666 149.037C39.9018 154.991 40.764 160.555 43.4044 165.96C44.7308 168.681 47.1428 170.18 49.8253 170.184C52.4059 170.188 55.1825 169.369 57.5171 168.203C60.3337 166.795 62.8914 164.777 65.3544 162.771C67.8681 160.727 70.5268 158.654 72.365 156.054C73.5005 154.447 74.8142 152.891 75.8073 151.195C79.212 145.387 82.6568 139.577 85.6014 133.533C88.0915 128.429 89.963 123.018 91.9862 117.694C92.5601 116.191 92.6998 114.521 93.0371 112.92ZM77.5122 92.4922C77.6795 92.5027 77.8677 92.557 78.0329 92.516C82.2619 91.5238 86.4781 90.4679 90.7217 89.5441C92.522 89.1523 94.3746 88.9265 96.2146 88.8164C97.6572 88.7333 98.0392 87.8651 98.1918 86.7304C98.504 84.4251 98.8531 82.1154 99.0255 79.7991C99.3036 76.0557 99.5147 72.3042 99.6401 68.5524C99.8243 63.1279 100.076 57.7001 99.9811 52.2812C99.9088 48.1863 99.4113 44.0915 98.9732 40.0133C98.656 37.0501 97.9339 34.1225 97.7278 31.1545C97.2032 23.6583 95.9247 16.3346 93.0095 9.38436C92.2267 7.52015 91.3571 5.50699 89.2186 4.63948C87.1864 6.74559 85.4734 14.8235 86.4859 16.6227C85.9706 17.4359 85.2319 18.11 85.1142 18.8767C84.2477 24.4798 83.4794 30.1001 82.7339 35.7219C82.2939 39.0356 81.8706 42.3562 81.6179 45.6888C81.502 47.1975 80.6231 48.8631 82.0432 50.261C79.7481 52.3327 75.9553 87.5619 77.5122 92.4922ZM80.4174 122.923C80.6417 122.984 80.8646 123.049 81.0856 123.109C81.7083 122.508 82.4147 121.969 82.9365 121.291C85.2922 118.222 87.751 115.216 89.8707 111.991C91.859 108.962 93.6829 105.782 95.1634 102.481C96.045 100.516 96.1458 98.1936 96.5583 96.0233C96.8926 94.2693 97.1713 92.5079 97.4789 90.7429C96.0374 90.9083 94.9698 90.9902 93.9152 91.1633C88.8525 91.9828 83.6885 92.3392 78.8935 94.428C77.7947 94.9066 77.3321 95.6206 77.4229 96.7894C77.6249 99.4554 77.8189 102.122 77.9761 104.793C78.1954 108.55 78.2015 112.333 78.6388 116.064C78.905 118.386 79.7999 120.639 80.4174 122.923ZM117.444 92.9838C113.885 92.3918 110.717 91.8637 107.128 91.2674C106.975 94.4731 106.679 97.1363 106.774 99.7857C106.861 102.213 107.307 104.636 107.732 107.036C107.836 107.625 108.474 108.122 108.868 108.659C109.407 108.148 110.058 107.715 110.454 107.114C111.137 106.074 111.456 104.727 112.296 103.864C115.192 100.894 115.389 96.7892 117.444 92.9838ZM122.67 91.8922C122.779 89.815 122.886 87.8267 123 85.7087C121.309 86.3916 121.108 86.6987 120.455 89.3117C119.884 91.6001 119.992 91.7459 122.67 91.8922ZM99.954 90.7195C99.6472 92.5395 99.3684 94.1877 99.0479 96.0878C101.18 93.7498 101.7 91.3938 99.954 90.7195Z" stroke="#3F238A" stroke-width="2" mask="url(#path-1-outside-1)"/>
</svg>
